HIERARCHY
ROOT root
{
	OFFSET	0	13.1	24.9
	CHANNELS 6  Xposition Yposition Zposition Xrotation Yrotation Zrotation
	JOINT spine_1
	{
		OFFSET	0	9.99999	0
		CHANNELS 3  Xrotation Yrotation Zrotation
		JOINT spine_2
		{
			OFFSET	0	112	-10
			CHANNELS 3  Xrotation Yrotation Zrotation
			JOINT spine_3
			{
				OFFSET	0	206.5	19.3
				CHANNELS 3  Xrotation Yrotation Zrotation
				JOINT spine_4
				{
					OFFSET	0	110.4	14.6
					CHANNELS 3  Xrotation Yrotation Zrotation
					JOINT neck_1
					{
						OFFSET	0	71.8	-50.3
						CHANNELS 3  Xrotation Yrotation Zrotation
						JOINT neck_2
						{
							OFFSET	0	86.2	-25.8
							CHANNELS 3  Xrotation Yrotation Zrotation
							JOINT head_ee
							{
								OFFSET	0	179.8	-8.7
								CHANNELS 3  Xrotation Yrotation Zrotation
								End Site
								{
									OFFSET	1	0	0
								}
							}
						}
					}
					JOINT left_clavicle
					{
						OFFSET	-43.2	22.4	-70.8
						CHANNELS 3  Xrotation Yrotation Zrotation
						JOINT left_shoulder
						{
							OFFSET	-93.9	-5.79999	48.7
							CHANNELS 3  Xrotation Yrotation Zrotation
							JOINT left_elbow
							{
								OFFSET	-291.4	-30.8	15.2
								CHANNELS 3  Xrotation Yrotation Zrotation
								JOINT left_lowarm_twist
								{
									OFFSET	-110.7	-3.89999	13.6
									CHANNELS 3  Xrotation Yrotation Zrotation
									JOINT left_hand
									{
										OFFSET	-110.7	-3.89999	13.6
										CHANNELS 3  Xrotation Yrotation Zrotation
										JOINT left_ee
										{
											OFFSET	-80.8	-5.10001	12.1
											CHANNELS 3  Xrotation Yrotation Zrotation
											End Site
											{
												OFFSET	1	0	0
											}
										}
									}
								}
							}
						}
					}
					JOINT right_clavicle
					{
						OFFSET	43.2	22.4	-70.8
						CHANNELS 3  Xrotation Yrotation Zrotation
						JOINT right_shoulder
						{
							OFFSET	93.9	-5.79999	48.7
							CHANNELS 3  Xrotation Yrotation Zrotation
							JOINT right_elbow
							{
								OFFSET	291.4	-30.8	15.2
								CHANNELS 3  Xrotation Yrotation Zrotation
								JOINT right_lowarm_twist
								{
									OFFSET	110.7	-3.89999	13.6
									CHANNELS 3  Xrotation Yrotation Zrotation
									JOINT right_hand
									{
										OFFSET	110.7	-3.89999	13.6
										CHANNELS 3  Xrotation Yrotation Zrotation
										JOINT right_ee
										{
											OFFSET	80.8	-5.10001	12.1
											CHANNELS 3  Xrotation Yrotation Zrotation
											End Site
											{
												OFFSET	1	0	0
											}
										}
									}
								}
							}
						}
					}
				}
			}
		}
	}
	JOINT left_hip
	{
		OFFSET	-82.8	-127.5	0.300001
		CHANNELS 3  Xrotation Yrotation Zrotation
		JOINT left_knee
		{
			OFFSET	-28.2	-396.7	2.2
			CHANNELS 3  Xrotation Yrotation Zrotation
			JOINT left_ankle
			{
				OFFSET	-11.7	-411.3	35.4
				CHANNELS 3  Xrotation Yrotation Zrotation
				JOINT left_toes
				{
					OFFSET	0	-60	-88.6
					CHANNELS 3  Xrotation Yrotation Zrotation
					JOINT left_foot_ee
					{
						OFFSET	-22.5	-16.5	-42.2
						CHANNELS 3  Xrotation Yrotation Zrotation
						End Site
						{
							OFFSET	1	0	0
						}
					}
				}
			}
		}
	}
	JOINT right_hip
	{
		OFFSET	82.8	-127.5	0.300001
		CHANNELS 3  Xrotation Yrotation Zrotation
		JOINT right_knee
		{
			OFFSET	28.2	-396.7	2.2
			CHANNELS 3  Xrotation Yrotation Zrotation
			JOINT right_ankle
			{
				OFFSET	11.7	-411.3	35.4
				CHANNELS 3  Xrotation Yrotation Zrotation
				JOINT right_toes
				{
					OFFSET	0	-60	-88.6
					CHANNELS 3  Xrotation Yrotation Zrotation
					JOINT right_foot_ee
					{
						OFFSET	22.5	-16.5	-42.2
						CHANNELS 3  Xrotation Yrotation Zrotation
						End Site
						{
							OFFSET	1	0	0
						}
					}
				}
			}
		}
	}
}
MOTION
Frames: 9
Frame Time: 0.02
2017.25 690.132 -1332.29 -3.65491 39.2411 -0.405523 0.953803 0.48116 3.18572 0.959406 0.277577 3.20984 0.976442 -0.348942 3.20288 0.962164 0.161002 3.21779 7.26369 15.7169 -10.8616 10.338 35.9526 -13.4227 -0.0 0.0 -0.0 -4.78885 23.7956 -3.78367 6.40333 -20.1209 63.4866 3.79022 -61.9433 2.27537 5.45561 0.160022 -0.678236 1.4279 0.330057 9.71549 -0.0 0.0 -0.0 12.7121 22.615 -25.3643 -17.4003 18.0595 -71.6302 0.376628 10.5684 -0.0348341 41.3251 0.419973 5.14949 -0.650764 -28.8998 -7.75742 0.0 0.0 0.0 -12.2372 9.53348 14.7124 -15.912 0.321917 2.41281 41.7168 23.4588 -5.27974 -18.2476 0.0 0.0 -0.0 0.0 -0.0 32.5629 5.03373 -12.5954 -1.32069 -0.0521226 -0.195972 -14.3847 25.5898 -2.60964 15.5967 -0.0 -0.0 0.0 0.0 0.0 
1998.16 689.048 -1338.59 -3.41379 40.0835 -0.869176 0.949925 0.377176 3.34472 0.956134 0.163701 3.36191 0.967222 -0.490867 3.32995 0.951752 0.0408871 3.36564 7.85077 14.8224 -12.2394 11.1489 35.5596 -15.3423 -0.0 0.0 -0.0 -4.36826 23.0306 -3.38779 6.18257 -20.6619 63.5183 3.18969 -57.6584 1.75598 4.51497 0.137054 -0.560274 1.40037 2.16181 10.2597 -0.0 0.0 -0.0 12.8289 23.9509 -25.506 -15.5134 17.9945 -72.2433 0.358832 10.0795 -0.0316448 41.5343 0.431465 5.17366 -0.684588 -27.4812 -7.01569 0.0 0.0 0.0 -14.693 10.2121 15.4254 -13.5534 0.316727 2.05099 38.9169 22.8996 -5.00022 -18.0015 0.0 0.0 -0.0 0.0 -0.0 31.7411 4.90112 -12.186 -2.43595 -0.0926052 -0.36234 -16.1086 20.6089 -2.77251 16.4735 -0.0 -0.0 0.0 0.0 0.0 
1979.77 689.604 -1350.34 -2.74757 39.8019 -1.57658 0.809548 0.59362 3.5242 0.816382 0.368308 3.55478 0.8414 -0.335025 3.55807 0.823811 0.230742 3.56634 7.13364 14.2737 -12.9691 10.3692 35.3607 -15.9708 -0.0 0.0 -0.0 -4.70607 23.3943 -3.77005 4.34617 -20.6315 64.0634 3.13409 -57.2018 1.70913 3.51658 0.11056 -0.435493 1.88032 1.20981 13.1461 -0.0 0.0 -0.0 13.1919 24.4999 -26.2905 -14.7642 18.8667 -71.5307 0.387946 10.8785 -0.0369399 41.8883 0.451108 5.21446 -0.368808 -28.8802 -9.28316 0.0 0.0 0.0 -14.4903 9.31486 14.9935 -16.0504 0.321759 2.43404 35.0866 22.0181 -4.59363 -17.9573 0.0 0.0 -0.0 0.0 -0.0 31.3605 5.05652 -11.8614 -5.39553 -0.184245 -0.807251 -13.0846 25.2835 -2.36207 17.4297 -0.0 -0.0 0.0 0.0 0.0 
1956.76 692.787 -1364.6 -1.72216 39.9235 -2.48481 0.645256 0.636796 3.67172 0.652665 0.402029 3.70474 0.681378 -0.341684 3.71078 0.662252 0.248235 3.71819 8.47075 12.7026 -14.7868 12.0163 34.1909 -18.7083 -0.0 0.0 -0.0 -4.65957 23.8229 -3.59855 3.12163 -19.6074 64.7115 2.68091 -53.0114 1.33717 2.38544 0.0779191 -0.294694 1.50881 3.03798 11.3367 -0.0 0.0 -0.0 13.0346 21.572 -26.2041 -12.8281 20.7922 -70.7968 0.42733 11.9525 -0.0447353 41.1404 0.409905 5.12812 -1.2281 -27.3527 -3.97501 0.0 0.0 0.0 -14.2084 9.84729 14.3579 -18.2981 0.312012 2.77875 32.9596 25.9945 -4.46872 -16.0496 0.0 0.0 -0.0 0.0 -0.0 30.3709 5.80942 -11.3313 -9.82698 -0.278202 -1.48063 -9.54332 17.265 -1.58138 20.119 -0.0 -0.0 0.0 0.0 0.0 
1928.2 700.6 -1375.39 -0.191938 39.492 -4.2148 0.54823 0.707289 3.81887 0.556223 0.463037 3.85606 0.590609 -0.318001 3.8707 0.569829 0.296824 3.87238 7.21343 12.3443 -15.7135 10.7276 34.4967 -19.406 -0.0 0.0 -0.0 -4.62966 24.4087 -3.41161 3.12118 -14.3103 67.279 2.41262 -50.0725 1.12701 -1.51272 -0.0557499 0.185126 1.90487 1.79162 13.5431 -0.0 0.0 -0.0 12.6943 20.8314 -25.4733 -12.0583 23.3613 -71.5986 0.453873 12.6716 -0.0503955 40.1718 0.358226 5.01552 -1.28446 -24.9836 -2.63014 0.0 0.0 0.0 -13.4512 11.254 13.8705 -25.4439 0.191444 3.86792 27.429 22.1461 -3.74677 -17.5091 0.0 0.0 -0.0 0.0 -0.0 27.719 6.97864 -9.12825 -11.8967 -0.304181 -1.79712 -4.78375 19.5708 -0.802137 23.8095 -0.0 -0.0 0.0 0.0 0.0 
1906.17 704.186 -1387.96 0.536936 38.8248 -5.16799 0.371756 0.800364 4.06897 0.380803 0.540047 4.11155 0.423742 -0.305641 4.13555 0.400054 0.350754 4.13197 4.84781 11.9016 -16.3794 8.01863 34.4299 -19.2566 -0.0 0.0 -0.0 -4.45759 23.932 -3.29394 0.578162 -13.0777 67.6267 2.12207 -46.4244 0.910141 -3.80018 -0.149299 0.462148 1.84733 3.34467 13.7536 -0.0 0.0 -0.0 13.0896 20.9665 -26.3816 -9.9524 25.6082 -70.7986 0.431821 12.0745 -0.0456702 40.2973 0.364818 5.03016 -1.31425 -24.1002 -2.07187 0.0 0.0 0.0 -10.7925 11.7689 12.8319 -30.8859 0.00911574 4.6829 24.2252 22.1043 -3.36011 -18.9129 0.0 0.0 -0.0 0.0 -0.0 26.0167 7.64985 -8.81064 -13.8472 -0.318186 -2.09606 -1.24102 19.2824 -0.205801 25.3733 -0.0 -0.0 0.0 0.0 0.0 
1882.54 708.451 -1400.53 1.24056 39.816 -6.1418 0.498643 0.666635 4.20003 0.508366 0.39827 4.23386 0.541632 -0.461007 4.2275 0.516762 0.211811 4.24725 4.50882 12.3718 -15.3884 7.46735 34.4044 -17.8857 -0.0 0.0 -0.0 -4.65213 23.8631 -3.57828 -0.327159 -12.0202 68.6346 1.70904 -40.2481 0.626273 -6.23018 -0.260727 0.752152 1.99276 3.67657 14.8749 -0.0 0.0 -0.0 12.9022 20.6134 -25.9727 -8.9893 26.9926 -71.0578 0.405011 11.3449 -0.0402289 40.6395 0.382945 5.07 -1.13252 -21.65 -2.04362 0.0 0.0 0.0 -10.1081 12.2737 12.2999 -33.8102 -0.120631 5.11281 23.6703 20.4139 -3.26672 -20.0999 0.0 0.0 -0.0 0.0 -0.0 24.2102 7.65373 -7.03419 -16.5973 -0.320632 -2.51795 3.46676 19.3569 0.567475 27.4987 -0.0 -0.0 0.0 0.0 0.0 
1868.74 709.367 -1411.08 1.4346 38.9599 -5.95736 0.448461 0.801693 4.14729 0.457868 0.536404 4.18979 0.501209 -0.319423 4.21186 0.476631 0.349164 4.2095 4.2255 13.2811 -14.4088 7.09413 35.1436 -16.5918 -0.0 0.0 -0.0 -4.79227 23.5578 -3.84865 -0.900567 -9.06007 69.7727 1.53907 -37.3197 0.519771 -8.2098 -0.360548 0.984796 1.90831 4.34211 14.5514 -0.0 0.0 -0.0 13.122 20.9272 -26.4603 -7.41136 28.3479 -71.3253 0.438619 12.2588 -0.047103 40.7464 0.388655 5.08242 -1.25747 -21.4465 -1.22387 0.0 0.0 0.0 -7.51496 12.2908 10.7756 -37.6182 -0.322234 5.66194 23.0366 20.4797 -3.18945 -20.9806 0.0 0.0 -0.0 0.0 -0.0 22.9713 7.24723 -7.4455 -16.5981 -0.32063 -2.51807 5.69828 17.3913 0.910093 30.1638 -0.0 -0.0 0.0 0.0 0.0 
1845.93 711.271 -1428.36 1.97927 39.7572 -6.2884 0.415314 0.684769 4.00218 0.424121 0.428925 4.03756 0.45812 -0.397255 4.0408 0.435425 0.245359 4.05284 4.17598 15.2551 -11.7041 6.83441 36.2716 -13.3032 -0.0 0.0 -0.0 -5.16589 22.4274 -4.66648 -1.74293 -6.08824 71.1735 1.195 -30.623 0.327183 -8.34127 -0.367462 1.00012 1.49929 6.92678 12.7622 -0.0 0.0 -0.0 13.1665 21.5406 -26.514 -5.5055 29.4903 -71.8567 0.498883 13.8817 -0.0607325 41.9169 0.452704 5.21775 -1.23843 -18.2872 0.0683595 0.0 0.0 0.0 -6.11537 9.7629 10.2568 -40.8608 -0.522435 6.11835 19.6574 22.8108 -2.79139 -20.7143 0.0 0.0 -0.0 0.0 -0.0 21.4573 7.32747 -7.16577 -19.7178 -0.29889 -2.99617 9.65421 12.7486 1.46816 32.1284 -0.0 -0.0 0.0 0.0 0.0 
